<svg width="235" height="82" viewBox="0 0 235 82" fill="none" xmlns="http://www.w3.org/2000/svg">
<rect width="235" height="82" rx="20" fill="url(#paint0_linear_128_1053)" fill-opacity="0.75"/>
<path d="M56.7897 45.632C56.5497 45.808 56.1737 46.024 55.6617 46.28C55.1497 46.536 54.5417 46.76 53.8377 46.952C53.1497 47.128 52.3817 47.208 51.5337 47.192C50.1737 47.176 48.9497 46.936 47.8617 46.472C46.7737 45.992 45.8537 45.352 45.1017 44.552C44.3497 43.736 43.7657 42.808 43.3497 41.768C42.9497 40.712 42.7497 39.592 42.7497 38.408C42.7497 37.08 42.9577 35.864 43.3737 34.76C43.7897 33.656 44.3817 32.704 45.1497 31.904C45.9177 31.088 46.8297 30.456 47.8857 30.008C48.9417 29.56 50.0937 29.336 51.3417 29.336C52.4457 29.336 53.4297 29.488 54.2937 29.792C55.1737 30.08 55.9097 30.408 56.5017 30.776L55.3977 33.416C54.9497 33.096 54.3897 32.784 53.7177 32.48C53.0457 32.176 52.2857 32.024 51.4377 32.024C50.6697 32.024 49.9337 32.184 49.2297 32.504C48.5257 32.808 47.9097 33.248 47.3817 33.824C46.8537 34.384 46.4297 35.04 46.1097 35.792C45.8057 36.544 45.6537 37.36 45.6537 38.24C45.6537 39.152 45.7897 39.992 46.0617 40.76C46.3497 41.512 46.7497 42.168 47.2617 42.728C47.7897 43.288 48.4137 43.728 49.1337 44.048C49.8697 44.352 50.6857 44.504 51.5817 44.504C52.4937 44.504 53.2857 44.368 53.9577 44.096C54.6457 43.808 55.1977 43.488 55.6137 43.136L56.7897 45.632ZM59.9652 47V28.28H62.6052V39.08L62.5572 38.672C62.9092 38.016 63.4292 37.48 64.1172 37.064C64.8052 36.632 65.6292 36.416 66.5892 36.416C67.5492 36.416 68.3412 36.696 68.9652 37.256C69.5892 37.816 69.9092 38.552 69.9252 39.464V47H67.2372V40.424C67.2212 39.912 67.0772 39.504 66.8052 39.2C66.5332 38.88 66.1012 38.712 65.5092 38.696C64.9652 38.696 64.4772 38.864 64.0452 39.2C63.6132 39.536 63.2692 39.992 63.0132 40.568C62.7732 41.128 62.6532 41.768 62.6532 42.488V47H59.9652ZM78.4773 47.264C77.2773 47.264 76.2533 47.032 75.4053 46.568C74.5573 46.104 73.9093 45.464 73.4613 44.648C73.0133 43.816 72.7893 42.88 72.7893 41.84C72.7893 40.816 73.0453 39.896 73.5573 39.08C74.0693 38.264 74.7573 37.616 75.6213 37.136C76.5013 36.64 77.4693 36.392 78.5253 36.392C79.9173 36.392 81.0613 36.8 81.9573 37.616C82.8693 38.416 83.4773 39.552 83.7812 41.024L75.5973 43.784L74.9733 42.272L81.3573 39.992L80.8053 40.304C80.6293 39.824 80.3413 39.408 79.9413 39.056C79.5573 38.704 79.0133 38.528 78.3093 38.528C77.7493 38.528 77.2533 38.664 76.8213 38.936C76.3893 39.192 76.0453 39.56 75.7893 40.04C75.5493 40.504 75.4293 41.056 75.4293 41.696C75.4293 42.352 75.5653 42.928 75.8373 43.424C76.1093 43.92 76.4773 44.304 76.9413 44.576C77.4053 44.832 77.9333 44.96 78.5253 44.96C78.9413 44.96 79.3413 44.888 79.7253 44.744C80.1093 44.6 80.4693 44.408 80.8053 44.168L82.0293 46.16C81.5013 46.496 80.9173 46.768 80.2773 46.976C79.6533 47.168 79.0533 47.264 78.4773 47.264ZM94.8261 46.064C94.3781 46.432 93.8261 46.728 93.1701 46.952C92.5301 47.16 91.8821 47.264 91.2261 47.264C90.1061 47.264 89.1221 47.048 88.2741 46.616C87.4261 46.168 86.7621 45.552 86.2821 44.768C85.8181 43.968 85.5861 43.016 85.5861 41.912C85.5861 40.808 85.8341 39.856 86.3301 39.056C86.8421 38.256 87.5061 37.648 88.3221 37.232C89.1541 36.8 90.0341 36.584 90.9621 36.584C91.8101 36.584 92.5621 36.704 93.2181 36.944C93.8741 37.168 94.4421 37.48 94.9221 37.88L93.5781 39.632C93.3221 39.424 92.9861 39.232 92.5701 39.056C92.1701 38.864 91.7141 38.768 91.2021 38.768C90.6581 38.768 90.1621 38.904 89.7141 39.176C89.2821 39.448 88.9301 39.824 88.6581 40.304C88.4021 40.768 88.2741 41.304 88.2741 41.912C88.2741 42.488 88.4101 43.016 88.6821 43.496C88.9541 43.976 89.3301 44.36 89.8101 44.648C90.2901 44.92 90.8421 45.056 91.4661 45.056C91.8661 45.056 92.2341 45 92.5701 44.888C92.9221 44.76 93.2261 44.592 93.4821 44.384L94.8261 46.064ZM97.5824 47V28.28H100.27V47H97.5824ZM102.79 40.184L107.422 47H104.302L101.014 41.72L102.79 40.184ZM99.4544 43.952L99.1904 41.36L105.358 36.608L106.99 38.048L99.4544 43.952ZM116.42 47L124.148 28.808H124.316L132.044 47H128.828L123.38 33.2L125.396 31.832L119.18 47H116.42ZM121.268 40.52H127.244L128.204 42.896H120.428L121.268 40.52ZM136.897 36.848L137.137 39.032L137.041 38.744C137.393 38.04 137.913 37.48 138.601 37.064C139.305 36.632 140.137 36.416 141.097 36.416C142.057 36.416 142.849 36.696 143.473 37.256C144.097 37.816 144.417 38.552 144.433 39.464V47H141.745V40.424C141.729 39.912 141.585 39.504 141.313 39.2C141.041 38.88 140.609 38.712 140.017 38.696C139.473 38.696 138.985 38.864 138.553 39.2C138.121 39.52 137.777 39.968 137.521 40.544C137.281 41.104 137.161 41.752 137.161 42.488V47H134.473V36.848H136.897ZM151.185 47.216C150.417 47.216 149.681 47.08 148.977 46.808C148.289 46.536 147.705 46.136 147.225 45.608L148.377 44.096C148.825 44.528 149.265 44.848 149.697 45.056C150.145 45.248 150.569 45.344 150.969 45.344C151.273 45.344 151.545 45.312 151.785 45.248C152.041 45.168 152.241 45.048 152.385 44.888C152.545 44.728 152.625 44.512 152.625 44.24C152.625 43.92 152.513 43.672 152.289 43.496C152.065 43.304 151.777 43.152 151.425 43.04C151.073 42.912 150.705 42.792 150.321 42.68C149.441 42.408 148.785 42.008 148.353 41.48C147.921 40.952 147.705 40.344 147.705 39.656C147.705 39.128 147.841 38.624 148.113 38.144C148.385 37.648 148.801 37.24 149.361 36.92C149.921 36.6 150.625 36.44 151.473 36.44C152.241 36.44 152.905 36.528 153.465 36.704C154.041 36.864 154.577 37.144 155.073 37.544L154.041 39.152C153.753 38.88 153.409 38.672 153.009 38.528C152.625 38.368 152.273 38.28 151.953 38.264C151.665 38.248 151.409 38.288 151.185 38.384C150.961 38.464 150.777 38.584 150.633 38.744C150.505 38.904 150.441 39.088 150.441 39.296C150.425 39.616 150.529 39.872 150.753 40.064C150.993 40.256 151.297 40.408 151.665 40.52C152.033 40.632 152.401 40.752 152.769 40.88C153.265 41.024 153.705 41.224 154.089 41.48C154.473 41.736 154.769 42.048 154.977 42.416C155.201 42.768 155.313 43.208 155.313 43.736C155.313 44.344 155.161 44.92 154.857 45.464C154.553 45.992 154.097 46.416 153.489 46.736C152.881 47.056 152.113 47.216 151.185 47.216ZM165.126 36.848L167.79 43.016L167.286 43.064L169.71 36.848H172.35L167.718 47.6L164.454 40.736L161.478 47.6L156.798 36.848H159.438L162.294 43.376L161.358 43.208L163.493 38.36L162.798 36.848H165.126ZM179.118 47.264C177.918 47.264 176.894 47.032 176.046 46.568C175.198 46.104 174.55 45.464 174.102 44.648C173.654 43.816 173.43 42.88 173.43 41.84C173.43 40.816 173.686 39.896 174.198 39.08C174.71 38.264 175.398 37.616 176.262 37.136C177.142 36.64 178.11 36.392 179.166 36.392C180.558 36.392 181.702 36.8 182.598 37.616C183.51 38.416 184.118 39.552 184.422 41.024L176.238 43.784L175.614 42.272L181.998 39.992L181.446 40.304C181.27 39.824 180.982 39.408 180.582 39.056C180.198 38.704 179.654 38.528 178.95 38.528C178.39 38.528 177.894 38.664 177.462 38.936C177.03 39.192 176.686 39.56 176.43 40.04C176.19 40.504 176.07 41.056 176.07 41.696C176.07 42.352 176.206 42.928 176.478 43.424C176.75 43.92 177.118 44.304 177.582 44.576C178.046 44.832 178.574 44.96 179.166 44.96C179.582 44.96 179.982 44.888 180.366 44.744C180.75 44.6 181.11 44.408 181.446 44.168L182.67 46.16C182.142 46.496 181.558 46.768 180.918 46.976C180.294 47.168 179.694 47.264 179.118 47.264ZM189.491 36.848L189.731 39.728L189.635 39.32C189.923 38.712 190.315 38.192 190.811 37.76C191.323 37.312 191.843 36.976 192.371 36.752C192.899 36.512 193.331 36.392 193.667 36.392L193.547 39.08C192.779 39.016 192.107 39.16 191.531 39.512C190.971 39.848 190.531 40.296 190.211 40.856C189.907 41.416 189.755 42.008 189.755 42.632V47H187.067V36.848H189.491Z" fill="black"/>
<defs>
<linearGradient id="paint0_linear_128_1053" x1="0" y1="41" x2="235" y2="41" gradientUnits="userSpaceOnUse">
<stop stop-color="#FED59C"/>
<stop offset="1" stop-color="#C96145"/>
</linearGradient>
</defs>
</svg>
