<svg width="400" height="82" viewBox="0 0 400 82" fill="none" xmlns="http://www.w3.org/2000/svg">
<rect width="400" height="82" rx="20" fill="url(#paint0_linear_64_993)" fill-opacity="0.75"/>
<path d="M41.296 45.392C41.072 45.616 40.736 45.832 40.288 46.04C39.856 46.248 39.368 46.44 38.824 46.616C38.28 46.792 37.72 46.928 37.144 47.024C36.568 47.136 36.024 47.192 35.512 47.192C34.104 47.192 32.832 46.976 31.696 46.544C30.576 46.112 29.608 45.52 28.792 44.768C27.992 44 27.376 43.096 26.944 42.056C26.528 41.016 26.32 39.888 26.32 38.672C26.32 37.152 26.56 35.816 27.04 34.664C27.52 33.496 28.176 32.52 29.008 31.736C29.84 30.936 30.792 30.336 31.864 29.936C32.952 29.536 34.096 29.336 35.296 29.336C36.352 29.336 37.328 29.456 38.224 29.696C39.136 29.936 39.912 30.24 40.552 30.608L39.64 33.2C39.336 33.024 38.944 32.856 38.464 32.696C37.984 32.52 37.496 32.384 37 32.288C36.52 32.192 36.072 32.144 35.656 32.144C34.648 32.144 33.744 32.288 32.944 32.576C32.16 32.848 31.488 33.256 30.928 33.8C30.368 34.344 29.936 35.008 29.632 35.792C29.344 36.56 29.2 37.44 29.2 38.432C29.2 39.328 29.352 40.144 29.656 40.88C29.976 41.616 30.416 42.248 30.976 42.776C31.552 43.304 32.224 43.712 32.992 44C33.776 44.272 34.64 44.408 35.584 44.408C36.128 44.408 36.656 44.36 37.168 44.264C37.68 44.168 38.112 44.016 38.464 43.808V40.904H35.2V38.216H41.296V45.392ZM49.8366 47.264C48.6366 47.264 47.6126 47.032 46.7646 46.568C45.9166 46.104 45.2686 45.464 44.8206 44.648C44.3726 43.816 44.1486 42.88 44.1486 41.84C44.1486 40.816 44.4046 39.896 44.9166 39.08C45.4286 38.264 46.1166 37.616 46.9806 37.136C47.8606 36.64 48.8286 36.392 49.8846 36.392C51.2766 36.392 52.4206 36.8 53.3166 37.616C54.2286 38.416 54.8366 39.552 55.1406 41.024L46.9566 43.784L46.3326 42.272L52.7166 39.992L52.1646 40.304C51.9886 39.824 51.7006 39.408 51.3006 39.056C50.9166 38.704 50.3726 38.528 49.6686 38.528C49.1086 38.528 48.6126 38.664 48.1806 38.936C47.7486 39.192 47.4046 39.56 47.1486 40.04C46.9086 40.504 46.7886 41.056 46.7886 41.696C46.7886 42.352 46.9246 42.928 47.1966 43.424C47.4686 43.92 47.8366 44.304 48.3006 44.576C48.7646 44.832 49.2926 44.96 49.8846 44.96C50.3006 44.96 50.7006 44.888 51.0846 44.744C51.4686 44.6 51.8286 44.408 52.1646 44.168L53.3886 46.16C52.8606 46.496 52.2766 46.768 51.6366 46.976C51.0126 47.168 50.4126 47.264 49.8366 47.264ZM60.2095 36.848L60.4495 39.032L60.3535 38.744C60.7055 38.04 61.2255 37.48 61.9135 37.064C62.6175 36.632 63.4495 36.416 64.4095 36.416C65.3695 36.416 66.1615 36.696 66.7855 37.256C67.4095 37.816 67.7295 38.552 67.7455 39.464V47H65.0575V40.424C65.0415 39.912 64.8975 39.504 64.6255 39.2C64.3535 38.88 63.9215 38.712 63.3295 38.696C62.7855 38.696 62.2975 38.864 61.8655 39.2C61.4335 39.52 61.0895 39.968 60.8335 40.544C60.5935 41.104 60.4735 41.752 60.4735 42.488V47H57.7855V36.848H60.2095ZM76.2976 47.264C75.0976 47.264 74.0736 47.032 73.2256 46.568C72.3776 46.104 71.7296 45.464 71.2816 44.648C70.8336 43.816 70.6096 42.88 70.6096 41.84C70.6096 40.816 70.8656 39.896 71.3776 39.08C71.8896 38.264 72.5776 37.616 73.4416 37.136C74.3216 36.64 75.2896 36.392 76.3456 36.392C77.7376 36.392 78.8816 36.8 79.7776 37.616C80.6896 38.416 81.2976 39.552 81.6016 41.024L73.4176 43.784L72.7936 42.272L79.1776 39.992L78.6256 40.304C78.4496 39.824 78.1616 39.408 77.7616 39.056C77.3776 38.704 76.8336 38.528 76.1296 38.528C75.5696 38.528 75.0736 38.664 74.6416 38.936C74.2096 39.192 73.8656 39.56 73.6096 40.04C73.3696 40.504 73.2496 41.056 73.2496 41.696C73.2496 42.352 73.3856 42.928 73.6576 43.424C73.9296 43.92 74.2976 44.304 74.7616 44.576C75.2256 44.832 75.7536 44.96 76.3456 44.96C76.7616 44.96 77.1616 44.888 77.5456 44.744C77.9296 44.6 78.2896 44.408 78.6256 44.168L79.8496 46.16C79.3216 46.496 78.7376 46.768 78.0976 46.976C77.4736 47.168 76.8736 47.264 76.2976 47.264ZM86.6704 36.848L86.9104 39.728L86.8144 39.32C87.1024 38.712 87.4944 38.192 87.9904 37.76C88.5024 37.312 89.0224 36.976 89.5504 36.752C90.0784 36.512 90.5104 36.392 90.8464 36.392L90.7264 39.08C89.9584 39.016 89.2864 39.16 88.7104 39.512C88.1504 39.848 87.7104 40.296 87.3904 40.856C87.0864 41.416 86.9344 42.008 86.9344 42.632V47H84.2464V36.848H86.6704ZM97.5888 47.264C96.6288 47.264 95.7568 47.064 94.9728 46.664C94.2048 46.264 93.5968 45.672 93.1488 44.888C92.7008 44.088 92.4768 43.104 92.4768 41.936C92.4768 40.784 92.7088 39.8 93.1728 38.984C93.6528 38.152 94.2768 37.512 95.0448 37.064C95.8288 36.616 96.6768 36.392 97.5888 36.392C98.5648 36.392 99.3488 36.584 99.9408 36.968C100.549 37.352 101.021 37.808 101.357 38.336L101.213 38.72L101.477 36.848H103.949V47H101.261V44.528L101.525 45.176C101.461 45.272 101.333 45.432 101.141 45.656C100.949 45.864 100.685 46.096 100.349 46.352C100.013 46.608 99.6128 46.824 99.1488 47C98.7008 47.176 98.1808 47.264 97.5888 47.264ZM98.3328 45.056C98.8128 45.056 99.2448 44.968 99.6288 44.792C100.029 44.616 100.365 44.368 100.637 44.048C100.925 43.728 101.133 43.344 101.261 42.896V40.688C101.133 40.272 100.925 39.912 100.637 39.608C100.349 39.288 99.9968 39.04 99.5808 38.864C99.1808 38.688 98.7328 38.6 98.2368 38.6C97.6928 38.6 97.1888 38.736 96.7248 39.008C96.2608 39.28 95.8848 39.656 95.5968 40.136C95.3248 40.616 95.1888 41.168 95.1888 41.792C95.1888 42.4 95.3328 42.952 95.6208 43.448C95.9088 43.944 96.2928 44.336 96.7728 44.624C97.2528 44.912 97.7728 45.056 98.3328 45.056ZM108.621 32.384H111.333V36.848H113.973V38.96H111.333V47H108.621V38.96H106.893V36.848H108.621V32.384ZM121.462 47.264C120.262 47.264 119.238 47.032 118.39 46.568C117.542 46.104 116.894 45.464 116.446 44.648C115.998 43.816 115.774 42.88 115.774 41.84C115.774 40.816 116.03 39.896 116.542 39.08C117.054 38.264 117.742 37.616 118.606 37.136C119.486 36.64 120.454 36.392 121.51 36.392C122.902 36.392 124.046 36.8 124.942 37.616C125.854 38.416 126.462 39.552 126.766 41.024L118.582 43.784L117.958 42.272L124.342 39.992L123.79 40.304C123.614 39.824 123.326 39.408 122.926 39.056C122.542 38.704 121.998 38.528 121.294 38.528C120.734 38.528 120.238 38.664 119.806 38.936C119.374 39.192 119.03 39.56 118.774 40.04C118.534 40.504 118.414 41.056 118.414 41.696C118.414 42.352 118.55 42.928 118.822 43.424C119.094 43.92 119.462 44.304 119.926 44.576C120.39 44.832 120.918 44.96 121.51 44.96C121.926 44.96 122.326 44.888 122.71 44.744C123.094 44.6 123.454 44.408 123.79 44.168L125.014 46.16C124.486 46.496 123.902 46.768 123.262 46.976C122.638 47.168 122.038 47.264 121.462 47.264ZM135.826 47L143.554 28.808H143.722L151.45 47H148.234L142.786 33.2L144.802 31.832L138.586 47H135.826ZM140.674 40.52H146.65L147.61 42.896H139.834L140.674 40.52ZM177.479 47.624L164.063 34.616L164.879 34.952L164.951 47H162.119V28.928H162.239L175.463 41.936L174.815 41.744L174.767 29.528H177.551V47.624H177.479ZM186.665 47.264C185.465 47.264 184.441 47.032 183.593 46.568C182.745 46.104 182.097 45.464 181.649 44.648C181.201 43.816 180.977 42.88 180.977 41.84C180.977 40.816 181.233 39.896 181.745 39.08C182.257 38.264 182.945 37.616 183.809 37.136C184.689 36.64 185.657 36.392 186.713 36.392C188.105 36.392 189.249 36.8 190.145 37.616C191.057 38.416 191.665 39.552 191.969 41.024L183.785 43.784L183.161 42.272L189.545 39.992L188.993 40.304C188.817 39.824 188.529 39.408 188.129 39.056C187.745 38.704 187.201 38.528 186.497 38.528C185.937 38.528 185.441 38.664 185.009 38.936C184.577 39.192 184.233 39.56 183.977 40.04C183.737 40.504 183.617 41.056 183.617 41.696C183.617 42.352 183.753 42.928 184.025 43.424C184.297 43.92 184.665 44.304 185.129 44.576C185.593 44.832 186.121 44.96 186.713 44.96C187.129 44.96 187.529 44.888 187.913 44.744C188.297 44.6 188.657 44.408 188.993 44.168L190.217 46.16C189.689 46.496 189.105 46.768 188.465 46.976C187.841 47.168 187.241 47.264 186.665 47.264ZM201.149 36.848L203.813 43.016L203.309 43.064L205.733 36.848H208.373L203.741 47.6L200.477 40.736L197.501 47.6L192.821 36.848H195.461L198.317 43.376L197.381 43.208L199.517 38.36L198.821 36.848H201.149ZM227.982 33.08C227.358 32.76 226.694 32.488 225.99 32.264C225.286 32.024 224.614 31.904 223.974 31.904C223.11 31.904 222.422 32.096 221.91 32.48C221.414 32.864 221.166 33.392 221.166 34.064C221.166 34.544 221.342 34.968 221.694 35.336C222.046 35.688 222.494 36 223.038 36.272C223.582 36.528 224.158 36.776 224.766 37.016C225.294 37.208 225.814 37.44 226.326 37.712C226.854 37.968 227.326 38.288 227.742 38.672C228.158 39.056 228.486 39.536 228.726 40.112C228.982 40.672 229.11 41.368 229.11 42.2C229.11 43.112 228.878 43.952 228.414 44.72C227.95 45.472 227.286 46.072 226.422 46.52C225.558 46.968 224.502 47.192 223.254 47.192C222.534 47.192 221.822 47.112 221.118 46.952C220.43 46.792 219.774 46.576 219.15 46.304C218.526 46.016 217.95 45.696 217.422 45.344L218.67 43.16C219.054 43.448 219.494 43.712 219.99 43.952C220.486 44.192 220.998 44.384 221.526 44.528C222.054 44.656 222.55 44.72 223.014 44.72C223.51 44.72 223.998 44.64 224.478 44.48C224.974 44.32 225.382 44.056 225.702 43.688C226.038 43.32 226.206 42.832 226.206 42.224C226.206 41.728 226.062 41.304 225.774 40.952C225.486 40.6 225.11 40.296 224.646 40.04C224.198 39.768 223.702 39.528 223.158 39.32C222.614 39.112 222.054 38.88 221.478 38.624C220.918 38.368 220.398 38.056 219.918 37.688C219.438 37.304 219.046 36.84 218.742 36.296C218.438 35.752 218.286 35.08 218.286 34.28C218.286 33.32 218.51 32.488 218.958 31.784C219.406 31.08 220.022 30.52 220.806 30.104C221.606 29.688 222.526 29.464 223.566 29.432C224.798 29.432 225.846 29.584 226.71 29.888C227.59 30.176 228.366 30.528 229.038 30.944L227.982 33.08ZM235.495 47.432C234.567 47.432 233.799 47.152 233.191 46.592C232.583 46.016 232.263 45.28 232.231 44.384V36.848H234.919V43.424C234.951 43.92 235.095 44.328 235.351 44.648C235.607 44.968 236.015 45.128 236.575 45.128C237.103 45.128 237.575 44.968 237.991 44.648C238.407 44.312 238.727 43.856 238.951 43.28C239.191 42.704 239.311 42.056 239.311 41.336V36.848H241.999V47H239.575L239.359 44.768L239.431 45.128C239.223 45.56 238.927 45.96 238.543 46.328C238.159 46.68 237.703 46.952 237.175 47.144C236.663 47.336 236.103 47.432 235.495 47.432ZM249.859 47.264C248.899 47.264 248.043 47.04 247.291 46.592C246.539 46.144 245.947 45.504 245.515 44.672C245.083 43.84 244.867 42.872 244.867 41.768C244.867 40.632 245.099 39.664 245.563 38.864C246.027 38.064 246.659 37.456 247.459 37.04C248.275 36.608 249.187 36.392 250.195 36.392C250.931 36.392 251.635 36.536 252.307 36.824C252.979 37.096 253.515 37.496 253.915 38.024L253.867 38.936V28.28H256.531V47H253.843V44.72L254.107 45.368C253.595 45.912 252.979 46.368 252.259 46.736C251.555 47.088 250.755 47.264 249.859 47.264ZM250.723 44.984C251.251 44.984 251.715 44.896 252.115 44.72C252.531 44.544 252.883 44.296 253.171 43.976C253.475 43.64 253.699 43.248 253.843 42.8V40.64C253.715 40.224 253.499 39.856 253.195 39.536C252.907 39.216 252.547 38.968 252.115 38.792C251.683 38.616 251.219 38.528 250.723 38.528C250.147 38.528 249.619 38.664 249.139 38.936C248.675 39.208 248.299 39.584 248.011 40.064C247.723 40.544 247.579 41.096 247.579 41.72C247.579 42.328 247.723 42.88 248.011 43.376C248.299 43.872 248.683 44.264 249.163 44.552C249.643 44.84 250.163 44.984 250.723 44.984ZM259.399 41.816C259.399 40.792 259.639 39.872 260.119 39.056C260.599 38.224 261.271 37.576 262.135 37.112C263.015 36.632 264.007 36.392 265.111 36.392C266.247 36.392 267.231 36.632 268.063 37.112C268.911 37.576 269.567 38.224 270.031 39.056C270.495 39.872 270.727 40.792 270.727 41.816C270.727 42.84 270.495 43.768 270.031 44.6C269.567 45.416 268.911 46.064 268.063 46.544C267.231 47.024 266.239 47.264 265.087 47.264C263.999 47.264 263.023 47.048 262.159 46.616C261.295 46.168 260.615 45.536 260.119 44.72C259.639 43.904 259.399 42.936 259.399 41.816ZM262.111 41.84C262.111 42.432 262.239 42.976 262.495 43.472C262.751 43.952 263.103 44.336 263.551 44.624C263.999 44.912 264.495 45.056 265.039 45.056C265.631 45.056 266.143 44.912 266.575 44.624C267.023 44.336 267.367 43.952 267.607 43.472C267.863 42.976 267.991 42.432 267.991 41.84C267.991 41.232 267.863 40.688 267.607 40.208C267.367 39.712 267.023 39.32 266.575 39.032C266.143 38.744 265.631 38.6 265.039 38.6C264.479 38.6 263.975 38.752 263.527 39.056C263.095 39.344 262.751 39.728 262.495 40.208C262.239 40.688 262.111 41.232 262.111 41.84ZM273.551 47V28.28H276.239V47H273.551ZM278.759 40.184L283.391 47H280.271L276.983 41.72L278.759 40.184ZM275.423 43.952L275.159 41.36L281.327 36.608L282.959 38.048L275.423 43.952ZM289.237 47.432C288.309 47.432 287.541 47.152 286.933 46.592C286.325 46.016 286.005 45.28 285.973 44.384V36.848H288.661V43.424C288.693 43.92 288.837 44.328 289.093 44.648C289.349 44.968 289.757 45.128 290.317 45.128C290.845 45.128 291.317 44.968 291.733 44.648C292.149 44.312 292.469 43.856 292.693 43.28C292.933 42.704 293.053 42.056 293.053 41.336V36.848H295.741V47H293.317L293.101 44.768L293.173 45.128C292.965 45.56 292.669 45.96 292.285 46.328C291.901 46.68 291.445 46.952 290.917 47.144C290.405 47.336 289.845 47.432 289.237 47.432ZM312.633 29.528C313.961 29.528 315.097 29.752 316.041 30.2C316.985 30.648 317.705 31.288 318.201 32.12C318.713 32.952 318.969 33.96 318.969 35.144C318.969 35.832 318.857 36.52 318.633 37.208C318.425 37.896 318.089 38.52 317.625 39.08C317.177 39.64 316.569 40.096 315.801 40.448C315.049 40.784 314.121 40.952 313.017 40.952H310.497V47H307.689V29.528H312.633ZM313.017 38.24C313.625 38.24 314.137 38.136 314.553 37.928C314.969 37.72 315.289 37.456 315.513 37.136C315.753 36.816 315.921 36.488 316.017 36.152C316.129 35.8 316.185 35.488 316.185 35.216C316.185 34.928 316.137 34.616 316.041 34.28C315.945 33.928 315.785 33.6 315.561 33.296C315.337 32.976 315.025 32.72 314.625 32.528C314.225 32.32 313.713 32.216 313.089 32.216H310.497V38.24H313.017ZM325.073 47.432C324.145 47.432 323.377 47.152 322.769 46.592C322.161 46.016 321.841 45.28 321.809 44.384V36.848H324.497V43.424C324.529 43.92 324.673 44.328 324.929 44.648C325.185 44.968 325.593 45.128 326.153 45.128C326.681 45.128 327.153 44.968 327.569 44.648C327.985 44.312 328.305 43.856 328.529 43.28C328.769 42.704 328.889 42.056 328.889 41.336V36.848H331.577V47H329.153L328.937 44.768L329.009 45.128C328.801 45.56 328.505 45.96 328.121 46.328C327.737 46.68 327.281 46.952 326.753 47.144C326.241 47.336 325.681 47.432 325.073 47.432ZM336.51 39.032C335.982 39.032 335.526 38.856 335.142 38.504C334.758 38.152 334.566 37.656 334.566 37.016V35.864H336.582V36.2C336.582 36.488 336.646 36.672 336.774 36.752C336.902 36.816 337.11 36.848 337.398 36.848H343.878L337.998 45.344L337.47 44.792H343.806V47H334.038L340.062 38.264L340.493 39.032H336.51ZM348.205 39.032C347.677 39.032 347.221 38.856 346.837 38.504C346.453 38.152 346.261 37.656 346.261 37.016V35.864H348.277V36.2C348.277 36.488 348.341 36.672 348.469 36.752C348.597 36.816 348.805 36.848 349.093 36.848H355.573L349.693 45.344L349.165 44.792H355.501V47H345.733L351.757 38.264L352.189 39.032H348.205ZM358.676 28.28H361.364V47H358.676V28.28ZM369.899 47.264C368.699 47.264 367.675 47.032 366.827 46.568C365.979 46.104 365.331 45.464 364.883 44.648C364.435 43.816 364.211 42.88 364.211 41.84C364.211 40.816 364.467 39.896 364.979 39.08C365.491 38.264 366.179 37.616 367.043 37.136C367.923 36.64 368.891 36.392 369.947 36.392C371.339 36.392 372.483 36.8 373.379 37.616C374.291 38.416 374.899 39.552 375.203 41.024L367.019 43.784L366.395 42.272L372.779 39.992L372.227 40.304C372.051 39.824 371.763 39.408 371.363 39.056C370.979 38.704 370.435 38.528 369.731 38.528C369.171 38.528 368.675 38.664 368.243 38.936C367.811 39.192 367.467 39.56 367.211 40.04C366.971 40.504 366.851 41.056 366.851 41.696C366.851 42.352 366.987 42.928 367.259 43.424C367.531 43.92 367.899 44.304 368.363 44.576C368.827 44.832 369.355 44.96 369.947 44.96C370.363 44.96 370.763 44.888 371.147 44.744C371.531 44.6 371.891 44.408 372.227 44.168L373.451 46.16C372.923 46.496 372.339 46.768 371.699 46.976C371.075 47.168 370.475 47.264 369.899 47.264Z" fill="black"/>
<defs>
<linearGradient id="paint0_linear_64_993" x1="0" y1="41" x2="400" y2="41" gradientUnits="userSpaceOnUse">
<stop stop-color="#FED59C"/>
<stop offset="1" stop-color="#C96145"/>
</linearGradient>
</defs>
</svg>
