<svg width="120" height="120" viewBox="0 0 120 120" fill="none" xmlns="http://www.w3.org/2000/svg">
<rect y="0.000976562" width="120" height="120" rx="15" fill="#FED59C"/>
<rect y="0.000976562" width="120" height="120" rx="15" stroke="black"/>
<path d="M120 105C120 113.284 113.284 120 105 120H15C6.71573 120 0 113.284 0 105V60.001H120V105ZM105.077 0.000976562H14.9229C14.9485 0.000847181 14.9743 0 15 0H105C105.026 2.5614e-08 105.051 0.000847104 105.077 0.000976562Z" fill="#EFC295"/>
<path d="M60.536 76.5125C57.72 76.5125 55.16 75.8512 52.856 74.5285C50.5947 73.1632 48.7813 71.2432 47.416 68.7685C46.0933 66.2512 45.432 63.2858 45.432 59.8725C45.432 57.0992 45.9653 54.4752 47.032 52.0005C48.1413 49.4832 49.6133 47.1365 51.448 44.9605C53.2827 42.7418 55.352 40.6938 57.656 38.8165C60.0027 36.8965 62.392 35.1472 64.824 33.5685L68.92 38.0485C65.464 39.7552 62.5627 41.6965 60.216 43.8725C57.8693 46.0058 56.056 48.1818 54.776 50.4005C53.496 52.6192 52.728 54.7098 52.472 56.6725L50.936 56.4805C52.088 54.0912 53.6027 52.2565 55.48 50.9765C57.3573 49.6965 59.7253 49.0565 62.584 49.0565C64.76 49.0565 66.808 49.6325 68.728 50.7845C70.648 51.9365 72.2053 53.5152 73.4 55.5205C74.6373 57.5258 75.256 59.8298 75.256 62.4325C75.256 65.2912 74.552 67.7872 73.144 69.9205C71.7787 72.0112 69.9653 73.6325 67.704 74.7845C65.4853 75.9365 63.096 76.5125 60.536 76.5125ZM60.28 70.9445C61.8587 70.9445 63.288 70.6032 64.568 69.9205C65.8907 69.1952 66.936 68.1925 67.704 66.9125C68.472 65.6325 68.856 64.1605 68.856 62.4965C68.856 60.8325 68.472 59.3818 67.704 58.1445C66.936 56.9072 65.8907 55.9472 64.568 55.2645C63.288 54.5818 61.8587 54.2405 60.28 54.2405C58.7013 54.2405 57.272 54.5818 55.992 55.2645C54.712 55.9045 53.688 56.8005 52.92 57.9525C52.152 59.0618 51.768 60.2992 51.768 61.6645V62.7525C51.768 64.2032 52.1307 65.5685 52.856 66.8485C53.624 68.0858 54.648 69.0885 55.928 69.8565C57.2507 70.5818 58.7013 70.9445 60.28 70.9445Z" fill="black"/>
</svg>
