<svg width="120" height="120" viewBox="0 0 120 120" fill="none" xmlns="http://www.w3.org/2000/svg">
<rect y="0.000976562" width="120" height="120" rx="15" fill="#FED59C"/>
<rect y="0.000976562" width="120" height="120" rx="15" stroke="black"/>
<path d="M120 105C120 113.284 113.284 120 105 120H15C6.71573 120 0 113.284 0 105V60.001H120V105ZM105.077 0.000976562H14.9229C14.9485 0.000847181 14.9743 0 15 0H105C105.026 2.5614e-08 105.051 0.000847104 105.077 0.000976562Z" fill="#EFC295"/>
<path d="M46.392 76.0005C49.1227 73.3552 51.7253 70.7525 54.2 68.1925C56.6747 65.6325 58.8933 63.1578 60.856 60.7685C62.8613 58.3792 64.44 56.0752 65.592 53.8565C66.744 51.5952 67.32 49.4192 67.32 47.3285C67.32 45.9205 67.0853 44.7258 66.616 43.7445C66.1467 42.7205 65.528 41.8885 64.76 41.2485C64.0347 40.6085 63.2027 40.1392 62.264 39.8405C61.3253 39.4992 60.3653 39.3285 59.384 39.3285C57.976 39.3285 56.7813 39.5632 55.8 40.0325C54.8187 40.4592 54.008 41.0352 53.368 41.7605C52.7707 42.4858 52.3227 43.2538 52.024 44.0645C51.768 44.8752 51.64 45.6858 51.64 46.4965C51.64 47.9045 51.8533 49.1845 52.28 50.3365C52.7067 51.4458 53.3253 52.4272 54.136 53.2805L50.296 56.6725C49.3147 56.0325 48.4613 55.1365 47.736 53.9845C47.0533 52.8325 46.52 51.5952 46.136 50.2725C45.7947 48.9072 45.624 47.6912 45.624 46.6245C45.624 44.3205 46.1787 42.1658 47.288 40.1605C48.44 38.1125 50.104 36.4698 52.28 35.2325C54.4987 33.9952 57.1867 33.3765 60.344 33.3765C63.032 33.3765 65.3787 33.9952 67.384 35.2325C69.3893 36.4698 70.9467 38.1125 72.056 40.1605C73.1653 42.1658 73.72 44.3845 73.72 46.8165C73.72 48.9498 73.2933 51.0405 72.44 53.0885C71.5867 55.1365 70.4347 57.1632 68.984 59.1685C67.576 61.1738 65.9973 63.1578 64.248 65.1205C62.5413 67.0405 60.8347 68.9818 59.128 70.9445L56.44 70.0485H75.128V76.0005H46.392Z" fill="black"/>
</svg>
