<svg width="120" height="120" viewBox="0 0 120 120" fill="none" xmlns="http://www.w3.org/2000/svg">
<rect y="0.000976562" width="120" height="120" rx="15" fill="#FED59C"/>
<rect y="0.000976562" width="120" height="120" rx="15" stroke="black"/>
<path d="M120 105C120 113.284 113.284 120 105 120H15C6.71573 120 0 113.284 0 105V60.001H120V105ZM105.077 0.000976562H14.9229C14.9485 0.000847181 14.9743 0 15 0H105C105.026 2.5614e-08 105.051 0.000847104 105.077 0.000976562Z" fill="#EFC295"/>
<path d="M43.832 65.8245V65.7605L69.496 33.3765H69.56V61.0885H75V65.8245H69.56V76.0005H63.352V65.8245H43.832ZM63.736 47.3925L52.92 61.4085L51.96 61.0885H63.352V46.2405L63.736 47.3925Z" fill="black"/>
</svg>
