<svg width="120" height="120" viewBox="0 0 120 120" fill="none" xmlns="http://www.w3.org/2000/svg">
<rect y="0.000976562" width="120" height="120" rx="15" fill="#FED59C"/>
<rect y="0.000976562" width="120" height="120" rx="15" stroke="black"/>
<path d="M120 105C120 113.284 113.284 120 105 120H15C6.71573 120 0 113.284 0 105V60.001H120V105ZM105.077 0.000976562H14.9229C14.9485 0.000847181 14.9743 0 15 0H105C105.026 2.5614e-08 105.051 0.000847104 105.077 0.000976562Z" fill="#EFC295"/>
<path d="M44.792 62.7525C44.792 60.5765 45.1973 58.6992 46.008 57.1205C46.8613 55.5418 47.9067 54.2192 49.144 53.1525C50.424 52.0432 51.7253 51.2112 53.048 50.6565C51.768 49.8458 50.7013 48.8432 49.848 47.6485C49.0373 46.4538 48.632 44.9178 48.632 43.0405C48.632 41.1632 49.1013 39.4992 50.04 38.0485C51.0213 36.5978 52.344 35.4672 54.008 34.6565C55.672 33.8032 57.5707 33.3765 59.704 33.3765C61.7947 33.3765 63.672 33.8032 65.336 34.6565C67 35.4672 68.3227 36.5765 69.304 37.9845C70.2853 39.3925 70.776 40.9925 70.776 42.7845C70.776 44.7898 70.3493 46.3898 69.496 47.5845C68.6853 48.7792 67.64 49.8032 66.36 50.6565C67.6827 51.2538 68.984 52.1072 70.264 53.2165C71.544 54.2832 72.5893 55.6058 73.4 57.1845C74.2533 58.7632 74.68 60.6192 74.68 62.7525C74.68 65.1845 73.9973 67.4458 72.632 69.5365C71.3093 71.6272 69.5173 73.3125 67.256 74.5925C65.0373 75.8725 62.4987 76.5125 59.64 76.5125C56.7813 76.5125 54.2427 75.8725 52.024 74.5925C49.8053 73.3125 48.0347 71.6272 46.712 69.5365C45.432 67.4458 44.792 65.1845 44.792 62.7525ZM51.128 62.4325C51.128 64.0538 51.512 65.5258 52.28 66.8485C53.048 68.1712 54.072 69.2378 55.352 70.0485C56.632 70.8592 58.0613 71.2645 59.64 71.2645C61.2613 71.2645 62.7333 70.8592 64.056 70.0485C65.4213 69.2378 66.488 68.1712 67.256 66.8485C68.0667 65.5258 68.472 64.0752 68.472 62.4965C68.472 60.8752 68.088 59.4245 67.32 58.1445C66.552 56.8218 65.5067 55.7552 64.184 54.9445C62.904 54.1338 61.4747 53.7285 59.896 53.7285C58.3173 53.6858 56.8667 54.0698 55.544 54.8805C54.2213 55.6485 53.1547 56.6938 52.344 58.0165C51.5333 59.3392 51.128 60.8112 51.128 62.4325ZM54.648 43.8085C54.648 45.1312 55.16 46.2618 56.184 47.2005C57.2507 48.0965 58.4667 48.5445 59.832 48.5445C61.1973 48.5445 62.3707 48.0965 63.352 47.2005C64.376 46.2618 64.888 45.1312 64.888 43.8085C64.888 42.2725 64.376 41.0138 63.352 40.0325C62.3707 39.0512 61.1973 38.5605 59.832 38.5605C58.424 38.5605 57.208 39.0512 56.184 40.0325C55.16 41.0138 54.648 42.2725 54.648 43.8085Z" fill="black"/>
</svg>
