<svg width="120" height="120" viewBox="0 0 120 120" fill="none" xmlns="http://www.w3.org/2000/svg">
<rect y="0.000976562" width="120" height="120" rx="15" fill="#FED59C"/>
<rect y="0.000976562" width="120" height="120" rx="15" stroke="black"/>
<path d="M120 105C120 113.284 113.284 120 105 120H15C6.71573 120 0 113.284 0 105V60.001H120V105ZM105.077 0.000976562H14.9229C14.9485 0.000847181 14.9743 0 15 0H105C105.026 2.5614e-08 105.051 0.000847104 105.077 0.000976562Z" fill="#EFC295"/>
<path d="M70.968 33.8885L59.704 52.0005L55.992 50.2725C56.5467 49.9738 57.1653 49.7605 57.848 49.6325C58.5307 49.5045 59.2133 49.4405 59.896 49.4405C61.4747 49.3552 63.0107 49.5258 64.504 49.9525C65.9973 50.3792 67.3413 51.0832 68.536 52.0645C69.7307 53.0458 70.6693 54.3472 71.352 55.9685C72.0773 57.5898 72.44 59.5952 72.44 61.9845C72.44 64.9712 71.7573 67.5525 70.392 69.7285C69.0267 71.9045 67.2133 73.5898 64.952 74.7845C62.7333 75.9365 60.2587 76.5125 57.528 76.5125C55.48 76.5125 53.432 76.1072 51.384 75.2965C49.3787 74.4432 47.7147 73.3338 46.392 71.9685L49.528 66.8485C50.3387 67.7872 51.448 68.6405 52.856 69.4085C54.3067 70.1765 55.8 70.5605 57.336 70.5605C58.9573 70.5605 60.408 70.1978 61.688 69.4725C63.0107 68.7472 64.056 67.7232 64.824 66.4005C65.6347 65.0352 66.04 63.4565 66.04 61.6645C66.04 59.1898 65.3147 57.2485 63.864 55.8405C62.456 54.4325 60.5147 53.7285 58.04 53.7285C56.8027 53.7285 55.7573 53.8352 54.904 54.0485C54.0507 54.2192 53.2827 54.4325 52.6 54.6885L52.408 54.4325L62.328 39.0085L64.248 39.8405H48.824V33.8885H70.968Z" fill="black"/>
</svg>
