<svg width="120" height="120" viewBox="0 0 120 120" fill="none" xmlns="http://www.w3.org/2000/svg">
<rect y="0.000976562" width="120" height="120" rx="15" fill="#FED59C"/>
<rect y="0.000976562" width="120" height="120" rx="15" stroke="black"/>
<path d="M120 105C120 113.284 113.284 120 105 120H15C6.71573 120 0 113.284 0 105V60.001H120V105ZM105.077 0.000976562H14.9229C14.9485 0.000847181 14.9743 0 15 0H105C105.026 2.5614e-08 105.051 0.000847104 105.077 0.000976562Z" fill="#EFC295"/>
<path d="M58.104 62.177C55.928 62.177 53.88 61.601 51.96 60.449C50.04 59.297 48.4613 57.7183 47.224 55.713C46.0293 53.665 45.432 51.361 45.432 48.801C45.432 45.8143 46.1147 43.233 47.48 41.057C48.888 38.8383 50.7013 37.1316 52.92 35.937C55.1387 34.7423 57.528 34.145 60.088 34.145C62.9467 34.145 65.5067 34.7636 67.768 36.001C70.072 37.2383 71.8853 38.9663 73.208 41.185C74.5733 43.4036 75.256 45.9636 75.256 48.865C75.256 52.193 74.616 55.2223 73.336 57.953C72.0987 60.6836 70.456 63.1796 68.408 65.441C66.36 67.6596 64.0987 69.7076 61.624 71.585C59.1493 73.4196 56.6747 75.169 54.2 76.833L50.104 72.289C53.6453 70.4543 56.7173 68.5343 59.32 66.529C61.9227 64.5236 63.9707 62.5183 65.464 60.513C66.9573 58.465 67.832 56.545 68.088 54.753L69.88 54.817C68.6 57.2063 67.064 59.041 65.272 60.321C63.5227 61.5583 61.1333 62.177 58.104 62.177ZM60.344 56.929C62.8613 56.929 64.9093 56.2036 66.488 54.753C68.1093 53.3023 68.92 51.425 68.92 49.121V47.969C68.8773 46.3903 68.472 44.9823 67.704 43.745C66.936 42.5076 65.912 41.5263 64.632 40.801C63.352 40.0756 61.9227 39.713 60.344 39.713C58.7653 39.713 57.3147 40.0756 55.992 40.801C54.712 41.5263 53.688 42.5503 52.92 43.873C52.1947 45.153 51.832 46.6676 51.832 48.417C51.832 50.1236 52.216 51.6383 52.984 52.961C53.752 54.241 54.776 55.2223 56.056 55.905C57.336 56.5876 58.7653 56.929 60.344 56.929Z" fill="black"/>
</svg>
