<svg width="120" height="120" viewBox="0 0 120 120" fill="none" xmlns="http://www.w3.org/2000/svg">
<rect y="0.000976562" width="120" height="120" rx="15" fill="#FED59C"/>
<rect y="0.000976562" width="120" height="120" rx="15" stroke="black"/>
<path d="M120 105C120 113.284 113.284 120 105 120H15C6.71573 120 0 113.284 0 105V60.001H120V105ZM105.077 0.000976562H14.9229C14.9485 0.000847181 14.9743 0 15 0H105C105.026 2.5614e-08 105.051 0.000847104 105.077 0.000976562Z" fill="#EFC295"/>
<path d="M58.68 76.5125C56.4187 76.5125 54.2427 76.1072 52.152 75.2965C50.104 74.4858 48.44 73.4405 47.16 72.1605L50.488 67.3605C51.3413 68.3418 52.472 69.1312 53.88 69.7285C55.3307 70.3258 56.76 70.6245 58.168 70.6245C59.7467 70.6245 61.1333 70.2832 62.328 69.6005C63.5653 68.8752 64.5253 67.9152 65.208 66.7205C65.8907 65.4832 66.232 64.0752 66.232 62.4965C66.232 60.7898 65.912 59.2752 65.272 57.9525C64.6747 56.6298 63.7573 55.6058 62.52 54.8805C61.3253 54.1125 59.8107 53.7285 57.976 53.7285C56.4827 53.7285 55.096 53.9418 53.816 54.3685C52.536 54.7525 51.2133 55.3498 49.848 56.1605H49.784V33.8885H69.944V39.8405H55.16V50.5925L54.328 49.3125C55.0533 49.0565 55.864 48.8645 56.76 48.7365C57.6987 48.5658 58.5947 48.4805 59.448 48.4805C62.3067 48.4805 64.696 49.1205 66.616 50.4005C68.5787 51.6378 70.0507 53.3018 71.032 55.3925C72.056 57.4832 72.568 59.7872 72.568 62.3045C72.568 64.9498 71.9707 67.3605 70.776 69.5365C69.5813 71.6698 67.9387 73.3765 65.848 74.6565C63.7573 75.8938 61.368 76.5125 58.68 76.5125Z" fill="black"/>
</svg>
