<svg width="235" height="82" viewBox="0 0 235 82" fill="none" xmlns="http://www.w3.org/2000/svg">
<rect width="235" height="82" rx="20" fill="url(#paint0_linear_128_1054)" fill-opacity="0.75"/>
<path d="M39.9899 33.08C39.3659 32.76 38.7019 32.488 37.9979 32.264C37.2939 32.024 36.6219 31.904 35.9819 31.904C35.1179 31.904 34.4299 32.096 33.9179 32.48C33.4219 32.864 33.1739 33.392 33.1739 34.064C33.1739 34.544 33.3499 34.968 33.7019 35.336C34.0539 35.688 34.5019 36 35.0459 36.272C35.5899 36.528 36.1659 36.776 36.7739 37.016C37.3019 37.208 37.8219 37.44 38.3339 37.712C38.8619 37.968 39.3339 38.288 39.7499 38.672C40.1659 39.056 40.4939 39.536 40.7339 40.112C40.9899 40.672 41.1179 41.368 41.1179 42.2C41.1179 43.112 40.8859 43.952 40.4219 44.72C39.9579 45.472 39.2939 46.072 38.4299 46.52C37.5659 46.968 36.5099 47.192 35.2619 47.192C34.5419 47.192 33.8299 47.112 33.1259 46.952C32.4379 46.792 31.7819 46.576 31.1579 46.304C30.5339 46.016 29.9579 45.696 29.4299 45.344L30.6779 43.16C31.0619 43.448 31.5019 43.712 31.9979 43.952C32.4939 44.192 33.0059 44.384 33.5339 44.528C34.0619 44.656 34.5579 44.72 35.0219 44.72C35.5179 44.72 36.0059 44.64 36.4859 44.48C36.9819 44.32 37.3899 44.056 37.7099 43.688C38.0459 43.32 38.2139 42.832 38.2139 42.224C38.2139 41.728 38.0699 41.304 37.7819 40.952C37.4939 40.6 37.1179 40.296 36.6539 40.04C36.2059 39.768 35.7099 39.528 35.1659 39.32C34.6219 39.112 34.0619 38.88 33.4859 38.624C32.9259 38.368 32.4059 38.056 31.9259 37.688C31.4459 37.304 31.0539 36.84 30.7499 36.296C30.4459 35.752 30.2939 35.08 30.2939 34.28C30.2939 33.32 30.5179 32.488 30.9659 31.784C31.4139 31.08 32.0299 30.52 32.8139 30.104C33.6139 29.688 34.5339 29.464 35.5739 29.432C36.8059 29.432 37.8539 29.584 38.7179 29.888C39.5979 30.176 40.3739 30.528 41.0459 30.944L39.9899 33.08ZM43.3986 41.816C43.3986 40.792 43.6386 39.872 44.1186 39.056C44.5986 38.224 45.2706 37.576 46.1346 37.112C47.0146 36.632 48.0066 36.392 49.1106 36.392C50.2466 36.392 51.2306 36.632 52.0626 37.112C52.9106 37.576 53.5666 38.224 54.0306 39.056C54.4946 39.872 54.7266 40.792 54.7266 41.816C54.7266 42.84 54.4946 43.768 54.0306 44.6C53.5666 45.416 52.9106 46.064 52.0626 46.544C51.2306 47.024 50.2386 47.264 49.0866 47.264C47.9986 47.264 47.0226 47.048 46.1586 46.616C45.2946 46.168 44.6146 45.536 44.1186 44.72C43.6386 43.904 43.3986 42.936 43.3986 41.816ZM46.1106 41.84C46.1106 42.432 46.2386 42.976 46.4946 43.472C46.7506 43.952 47.1026 44.336 47.5506 44.624C47.9986 44.912 48.4946 45.056 49.0386 45.056C49.6306 45.056 50.1426 44.912 50.5746 44.624C51.0226 44.336 51.3666 43.952 51.6066 43.472C51.8626 42.976 51.9906 42.432 51.9906 41.84C51.9906 41.232 51.8626 40.688 51.6066 40.208C51.3666 39.712 51.0226 39.32 50.5746 39.032C50.1426 38.744 49.6306 38.6 49.0386 38.6C48.4786 38.6 47.9746 38.752 47.5266 39.056C47.0946 39.344 46.7506 39.728 46.4946 40.208C46.2386 40.688 46.1106 41.232 46.1106 41.84ZM57.5511 28.28H60.2391V47H57.5511V28.28ZM68.2701 47.264L62.4381 36.848H65.6301L69.3021 44.48L67.6461 44.408L70.9581 36.848H73.9581L68.3901 47.264H68.2701ZM80.7273 47.264C79.5273 47.264 78.5033 47.032 77.6553 46.568C76.8073 46.104 76.1593 45.464 75.7113 44.648C75.2633 43.816 75.0393 42.88 75.0393 41.84C75.0393 40.816 75.2953 39.896 75.8073 39.08C76.3193 38.264 77.0073 37.616 77.8713 37.136C78.7513 36.64 79.7193 36.392 80.7753 36.392C82.1673 36.392 83.3113 36.8 84.2073 37.616C85.1193 38.416 85.7273 39.552 86.0312 41.024L77.8473 43.784L77.2233 42.272L83.6073 39.992L83.0553 40.304C82.8793 39.824 82.5913 39.408 82.1913 39.056C81.8073 38.704 81.2633 38.528 80.5593 38.528C79.9993 38.528 79.5033 38.664 79.0713 38.936C78.6393 39.192 78.2953 39.56 78.0393 40.04C77.7993 40.504 77.6793 41.056 77.6793 41.696C77.6793 42.352 77.8153 42.928 78.0873 43.424C78.3593 43.92 78.7273 44.304 79.1913 44.576C79.6553 44.832 80.1833 44.96 80.7753 44.96C81.1913 44.96 81.5913 44.888 81.9753 44.744C82.3593 44.6 82.7193 44.408 83.0553 44.168L84.2793 46.16C83.7513 46.496 83.1673 46.768 82.5273 46.976C81.9033 47.168 81.3033 47.264 80.7273 47.264ZM96.9156 47V28.904H96.9396L106.348 42.224L105.148 41.96L114.508 28.904H114.556V47H111.772V35.216L111.964 36.656L105.652 45.584H105.604L99.1476 36.656L99.6276 35.336V47H96.9156ZM119.633 51.872L126.377 36.848H128.825L122.273 51.872H119.633ZM122.249 47.072L117.305 36.848H120.329L124.313 45.704L122.249 47.072ZM144.211 29.528C145.539 29.528 146.675 29.752 147.619 30.2C148.563 30.648 149.283 31.288 149.779 32.12C150.291 32.952 150.547 33.96 150.547 35.144C150.547 35.832 150.435 36.52 150.211 37.208C150.003 37.896 149.667 38.52 149.203 39.08C148.755 39.64 148.147 40.096 147.379 40.448C146.627 40.784 145.699 40.952 144.595 40.952H142.075V47H139.267V29.528H144.211ZM144.595 38.24C145.203 38.24 145.715 38.136 146.131 37.928C146.547 37.72 146.867 37.456 147.091 37.136C147.331 36.816 147.499 36.488 147.595 36.152C147.707 35.8 147.763 35.488 147.763 35.216C147.763 34.928 147.715 34.616 147.619 34.28C147.523 33.928 147.363 33.6 147.139 33.296C146.915 32.976 146.603 32.72 146.203 32.528C145.803 32.32 145.291 32.216 144.667 32.216H142.075V38.24H144.595ZM156.651 47.432C155.723 47.432 154.955 47.152 154.347 46.592C153.739 46.016 153.419 45.28 153.387 44.384V36.848H156.075V43.424C156.107 43.92 156.251 44.328 156.507 44.648C156.763 44.968 157.171 45.128 157.731 45.128C158.259 45.128 158.731 44.968 159.147 44.648C159.563 44.312 159.883 43.856 160.107 43.28C160.347 42.704 160.467 42.056 160.467 41.336V36.848H163.155V47H160.731L160.515 44.768L160.587 45.128C160.379 45.56 160.083 45.96 159.699 46.328C159.315 46.68 158.859 46.952 158.331 47.144C157.819 47.336 157.259 47.432 156.651 47.432ZM168.088 39.032C167.56 39.032 167.104 38.856 166.72 38.504C166.336 38.152 166.144 37.656 166.144 37.016V35.864H168.16V36.2C168.16 36.488 168.224 36.672 168.352 36.752C168.48 36.816 168.688 36.848 168.976 36.848H175.456L169.576 45.344L169.048 44.792H175.384V47H165.616L171.64 38.264L172.072 39.032H168.088ZM179.783 39.032C179.255 39.032 178.799 38.856 178.415 38.504C178.031 38.152 177.839 37.656 177.839 37.016V35.864H179.855V36.2C179.855 36.488 179.919 36.672 180.047 36.752C180.175 36.816 180.383 36.848 180.671 36.848H187.151L181.271 45.344L180.743 44.792H187.079V47H177.311L183.335 38.264L183.767 39.032H179.783ZM190.254 28.28H192.942V47H190.254V28.28ZM201.477 47.264C200.277 47.264 199.253 47.032 198.405 46.568C197.557 46.104 196.909 45.464 196.461 44.648C196.013 43.816 195.789 42.88 195.789 41.84C195.789 40.816 196.045 39.896 196.557 39.08C197.069 38.264 197.757 37.616 198.621 37.136C199.501 36.64 200.469 36.392 201.525 36.392C202.917 36.392 204.061 36.8 204.957 37.616C205.869 38.416 206.477 39.552 206.781 41.024L198.597 43.784L197.973 42.272L204.357 39.992L203.805 40.304C203.629 39.824 203.341 39.408 202.941 39.056C202.557 38.704 202.013 38.528 201.309 38.528C200.749 38.528 200.253 38.664 199.821 38.936C199.389 39.192 199.045 39.56 198.789 40.04C198.549 40.504 198.429 41.056 198.429 41.696C198.429 42.352 198.565 42.928 198.837 43.424C199.109 43.92 199.477 44.304 199.941 44.576C200.405 44.832 200.933 44.96 201.525 44.96C201.941 44.96 202.341 44.888 202.725 44.744C203.109 44.6 203.469 44.408 203.805 44.168L205.029 46.16C204.501 46.496 203.917 46.768 203.277 46.976C202.653 47.168 202.053 47.264 201.477 47.264Z" fill="black"/>
<defs>
<linearGradient id="paint0_linear_128_1054" x1="0" y1="41" x2="235" y2="41" gradientUnits="userSpaceOnUse">
<stop stop-color="#FED59C"/>
<stop offset="1" stop-color="#C96145"/>
</linearGradient>
</defs>
</svg>
